G04*
G04 #@! TF.GenerationSoftware,Altium Limited,Altium Designer,26.9.1 (10)*
G04*
G04 Layer_Color=128*
G04 Board_Origin=0|0*
%FSLAX44Y44*%
%MOMM*%
G71*
G04*
G04 #@! TF.SameCoordinates,A765EA36-DCD5-4461-9B63-C97C4D1C46A6*
G04*
G04*
G04 #@! TF.FilePolarity,Positive*
G04*
G01*
G75*
%ADD20R,0.7000X0.4000*%
%ADD21R,0.4000X0.7000*%
%ADD22R,0.3000X0.6000*%
%ADD23R,0.3000X0.7300*%
%ADD25R,0.6000X0.3000*%
%ADD26R,0.7300X0.3000*%
D20*
X40000Y29500D02*
D03*
Y40500D02*
D03*
Y20500D02*
D03*
Y49500D02*
D03*
X102500Y55500D02*
D03*
Y64500D02*
D03*
D21*
X64500Y10000D02*
D03*
X50500Y115000D02*
D03*
X55500Y10000D02*
D03*
X70500Y115000D02*
D03*
X59500D02*
D03*
X79500D02*
D03*
D22*
X60000Y25000D02*
D03*
X65000D02*
D03*
X70000D02*
D03*
Y45000D02*
D03*
X60000D02*
D03*
X65000D02*
D03*
D23*
X50000Y99650D02*
D03*
X55000D02*
D03*
X70000Y60350D02*
D03*
X65000D02*
D03*
X60000D02*
D03*
X55000D02*
D03*
X50000D02*
D03*
X60000Y99650D02*
D03*
X65000D02*
D03*
X70000D02*
D03*
D25*
X52500Y27500D02*
D03*
X77500Y42500D02*
D03*
Y37500D02*
D03*
Y32500D02*
D03*
Y27500D02*
D03*
X52500Y32500D02*
D03*
Y37500D02*
D03*
Y42500D02*
D03*
D26*
X79650Y90000D02*
D03*
Y85000D02*
D03*
Y80000D02*
D03*
Y75000D02*
D03*
Y70000D02*
D03*
X40350D02*
D03*
Y75000D02*
D03*
Y80000D02*
D03*
Y85000D02*
D03*
Y90000D02*
D03*
M02*
