G04*
G04 #@! TF.GenerationSoftware,Altium Limited,Altium Designer,26.9.1 (10)*
G04*
G04 Layer_Color=16711935*
G04 Board_Origin=0|0*
%FSLAX44Y44*%
%MOMM*%
G71*
G04*
G04 #@! TF.SameCoordinates,A765EA36-DCD5-4461-9B63-C97C4D1C46A6*
G04*
G04*
G04 #@! TF.FilePolarity,Negative*
G04*
G01*
G75*
%ADD11O,1.2032X2.0032*%
%ADD12C,1.1938*%
%ADD28R,0.9032X0.6032*%
%ADD29R,0.6032X0.9032*%
%ADD30R,0.5032X0.8032*%
%ADD31R,0.5032X0.9332*%
%ADD32C,0.9906*%
%ADD33R,0.8032X0.5032*%
%ADD34R,0.9332X0.5032*%
D11*
X115000Y60000D02*
D03*
X140000D02*
D03*
X90000D02*
D03*
D12*
X145000Y100000D02*
D03*
X94200Y110160D02*
D03*
Y89840D02*
D03*
D28*
X40000Y29500D02*
D03*
Y40500D02*
D03*
Y20500D02*
D03*
Y49500D02*
D03*
X102500Y55500D02*
D03*
Y64500D02*
D03*
D29*
X64500Y10000D02*
D03*
X50500Y115000D02*
D03*
X55500Y10000D02*
D03*
X70500Y115000D02*
D03*
X59500D02*
D03*
X79500D02*
D03*
D30*
X60000Y25000D02*
D03*
X65000D02*
D03*
X70000D02*
D03*
Y45000D02*
D03*
X60000D02*
D03*
X65000D02*
D03*
D31*
X50000Y99650D02*
D03*
X55000D02*
D03*
X70000Y60350D02*
D03*
X65000D02*
D03*
X60000D02*
D03*
X55000D02*
D03*
X50000D02*
D03*
X60000Y99650D02*
D03*
X65000D02*
D03*
X70000D02*
D03*
D32*
X119600Y93650D02*
D03*
X132300Y106350D02*
D03*
Y93650D02*
D03*
X119600Y106350D02*
D03*
X106900Y93650D02*
D03*
Y106350D02*
D03*
D33*
X52500Y27500D02*
D03*
X77500Y42500D02*
D03*
Y37500D02*
D03*
Y32500D02*
D03*
Y27500D02*
D03*
X52500Y32500D02*
D03*
Y37500D02*
D03*
Y42500D02*
D03*
D34*
X79650Y90000D02*
D03*
Y85000D02*
D03*
Y80000D02*
D03*
Y75000D02*
D03*
Y70000D02*
D03*
X40350D02*
D03*
Y75000D02*
D03*
Y80000D02*
D03*
Y85000D02*
D03*
Y90000D02*
D03*
M02*
