G04*
G04 #@! TF.GenerationSoftware,Altium Limited,Altium Designer,26.9.1 (10)*
G04*
G04 Layer_Physical_Order=4*
G04 Layer_Color=16711680*
G04 Board_Origin=0|0*
%FSLAX44Y44*%
%MOMM*%
G71*
G04*
G04 #@! TF.SameCoordinates,A765EA36-DCD5-4461-9B63-C97C4D1C46A6*
G04*
G04*
G04 #@! TF.FilePolarity,Positive*
G04*
G01*
G75*
%ADD13O,1.0000X1.8000*%
%ADD14C,0.9906*%
%ADD15C,0.5000*%
%ADD20R,0.7000X0.4000*%
%ADD21R,0.4000X0.7000*%
%ADD22R,0.3000X0.6000*%
%ADD23R,0.3000X0.7300*%
%ADD24C,0.7874*%
%ADD25R,0.6000X0.3000*%
%ADD26R,0.7300X0.3000*%
%ADD27C,0.1500*%
D13*
X115000Y60000D02*
D03*
X140000D02*
D03*
X90000D02*
D03*
D14*
X145000Y100000D02*
D03*
X94200Y110160D02*
D03*
Y89840D02*
D03*
D15*
X137500Y111550D02*
D03*
X125000Y88250D02*
D03*
X75000Y20000D02*
D03*
X65000Y115000D02*
D03*
Y17750D02*
D03*
X52250Y20250D02*
D03*
X50000Y107075D02*
D03*
X40000Y35000D02*
D03*
D20*
Y29500D02*
D03*
Y40500D02*
D03*
Y20500D02*
D03*
Y49500D02*
D03*
X102500Y55500D02*
D03*
Y64500D02*
D03*
D21*
X64500Y10000D02*
D03*
X50500Y115000D02*
D03*
X55500Y10000D02*
D03*
X70500Y115000D02*
D03*
X59500D02*
D03*
X79500D02*
D03*
D22*
X60000Y25000D02*
D03*
X65000D02*
D03*
X70000D02*
D03*
Y45000D02*
D03*
X60000D02*
D03*
X65000D02*
D03*
D23*
X50000Y99650D02*
D03*
X55000D02*
D03*
X70000Y60350D02*
D03*
X65000D02*
D03*
X60000D02*
D03*
X55000D02*
D03*
X50000D02*
D03*
X60000Y99650D02*
D03*
X65000D02*
D03*
X70000D02*
D03*
D24*
X119600Y93650D02*
D03*
X132300Y106350D02*
D03*
Y93650D02*
D03*
X119600Y106350D02*
D03*
X106900Y93650D02*
D03*
Y106350D02*
D03*
D25*
X52500Y27500D02*
D03*
X77500Y42500D02*
D03*
Y37500D02*
D03*
Y32500D02*
D03*
Y27500D02*
D03*
X52500Y32500D02*
D03*
Y37500D02*
D03*
Y42500D02*
D03*
D26*
X79650Y90000D02*
D03*
Y85000D02*
D03*
Y80000D02*
D03*
Y75000D02*
D03*
Y70000D02*
D03*
X40350D02*
D03*
Y75000D02*
D03*
Y80000D02*
D03*
Y85000D02*
D03*
Y90000D02*
D03*
D27*
X85500Y119000D02*
X117000D01*
X74000Y107500D02*
X85500Y119000D01*
X62500Y107500D02*
X74000D01*
X60000Y105000D02*
X62500Y107500D01*
X60000Y99650D02*
Y105000D01*
X132300Y106350D02*
X137500Y111550D01*
X119600Y93650D02*
X125000Y88250D01*
X126000Y99950D02*
Y110000D01*
Y99950D02*
X132300Y93650D01*
X117000Y119000D02*
X126000Y110000D01*
X90000Y80000D02*
X99000D01*
X106900Y87900D02*
Y93650D01*
X99000Y80000D02*
X106900Y87900D01*
X55000Y85000D02*
X75000Y65000D01*
Y57500D02*
X85000Y47500D01*
X75000Y57500D02*
Y65000D01*
X72500Y92500D02*
X82000Y102000D01*
X72500Y82500D02*
X75000Y80000D01*
X72500Y82500D02*
Y92500D01*
X75000Y80000D02*
X79650D01*
X82000Y102000D02*
X101465D01*
X79650Y92325D02*
X85325Y98000D01*
X103000D01*
X105000Y100000D01*
X113250D01*
X101465Y102000D02*
X105815Y106350D01*
X106900D01*
X75000Y20000D02*
X75000D01*
X70000Y25000D02*
X75000Y20000D01*
X79650Y90000D02*
Y92325D01*
X113250Y100000D02*
X119600Y106350D01*
X85000Y85000D02*
X90000Y80000D01*
X79650Y85000D02*
X85000D01*
X59500Y115000D02*
X70500D01*
X64750Y17500D02*
X65000Y17750D01*
X62500Y17500D02*
X64750D01*
X60000Y20000D02*
X62500Y17500D01*
X60000Y20000D02*
Y25000D01*
X65000Y17750D02*
Y25000D01*
Y10500D02*
Y17750D01*
X64500Y10000D02*
X65000Y10500D01*
X52000Y20500D02*
X52500Y20000D01*
X40000Y20500D02*
X52000D01*
X52500Y20000D02*
X55500Y17000D01*
Y10000D02*
Y17000D01*
X52500Y20000D02*
Y27500D01*
X90000Y60000D02*
X94500Y64500D01*
X102500D01*
X97500Y47500D02*
X102500Y52500D01*
Y55500D01*
X85000Y47500D02*
X97500D01*
X70000Y57500D02*
X85000Y42500D01*
Y30000D02*
Y42500D01*
X70000Y57500D02*
Y60350D01*
X40350Y85000D02*
X55000D01*
X50000Y114500D02*
X50500Y115000D01*
X50000Y99650D02*
Y114500D01*
X40000Y29500D02*
Y40500D01*
X55000Y105000D02*
X59500Y109500D01*
Y115000D01*
X55000Y99650D02*
Y105000D01*
X82500Y27500D02*
X85000Y30000D01*
X77500Y27500D02*
X82500D01*
X40000Y69650D02*
X40350Y70000D01*
X40000Y49500D02*
Y69650D01*
X65000Y57500D02*
X77500Y45000D01*
Y42500D02*
Y45000D01*
X65000Y57500D02*
Y60350D01*
X60000Y57500D02*
X70000Y47500D01*
Y45000D02*
Y47500D01*
X60000Y57500D02*
Y60350D01*
X55000Y57500D02*
X65000Y47500D01*
Y45000D02*
Y47500D01*
X55000Y57500D02*
Y60350D01*
X50000Y57500D02*
X60000Y47500D01*
X50000Y57500D02*
Y60350D01*
X60000Y45000D02*
Y47500D01*
M02*
